<svg xmlns="http://www.w3.org/2000/svg" viewBox="0 0 156 28">
  <rect width="156" height="28" rx="4" fill="#1a1a1a"/>
  <rect x="0" y="0" width="28" height="28" rx="4" fill="hsl(38, 90%, 38%)"/>
  <circle cx="5" cy="5" r="2" fill="rgba(255,255,255,0.12)"/>
  <circle cx="11" cy="5" r="2" fill="rgba(255,255,255,0.12)"/>
  <circle cx="17" cy="5" r="2" fill="rgba(255,255,255,0.12)"/>
  <circle cx="23" cy="5" r="2" fill="rgba(255,255,255,0.12)"/>
  <circle cx="5" cy="11" r="2" fill="rgba(255,255,255,0.5)"/>
  <circle cx="11" cy="11" r="2" fill="rgba(255,255,255,0.12)"/>
  <circle cx="17" cy="11" r="2" fill="rgba(255,255,255,0.5)"/>
  <circle cx="23" cy="11" r="2" fill="rgba(255,255,255,0.5)"/>
  <circle cx="5" cy="17" r="2" fill="rgba(255,255,255,0.5)"/>
  <circle cx="11" cy="17" r="2" fill="rgba(255,255,255,0.5)"/>
  <circle cx="17" cy="17" r="2" fill="rgba(255,255,255,0.5)"/>
  <circle cx="23" cy="17" r="2" fill="rgba(255,255,255,0.5)"/>
  <circle cx="5" cy="23" r="2" fill="rgba(255,255,255,0.5)"/>
  <circle cx="11" cy="23" r="2" fill="rgba(255,255,255,0.5)"/>
  <circle cx="17" cy="23" r="2" fill="rgba(255,255,255,0.12)"/>
  <circle cx="23" cy="23" r="2" fill="rgba(255,255,255,0.5)"/>
  <rect x="32" y="0" width="28" height="28" rx="4" fill="hsl(42, 85%, 42%)"/>
  <circle cx="37" cy="5" r="2" fill="rgba(255,255,255,0.12)"/>
  <circle cx="43" cy="5" r="2" fill="rgba(255,255,255,0.12)"/>
  <circle cx="49" cy="5" r="2" fill="rgba(255,255,255,0.12)"/>
  <circle cx="55" cy="5" r="2" fill="rgba(255,255,255,0.5)"/>
  <circle cx="37" cy="11" r="2" fill="rgba(255,255,255,0.12)"/>
  <circle cx="43" cy="11" r="2" fill="rgba(255,255,255,0.5)"/>
  <circle cx="49" cy="11" r="2" fill="rgba(255,255,255,0.5)"/>
  <circle cx="55" cy="11" r="2" fill="rgba(255,255,255,0.12)"/>
  <circle cx="37" cy="17" r="2" fill="rgba(255,255,255,0.5)"/>
  <circle cx="43" cy="17" r="2" fill="rgba(255,255,255,0.12)"/>
  <circle cx="49" cy="17" r="2" fill="rgba(255,255,255,0.12)"/>
  <circle cx="55" cy="17" r="2" fill="rgba(255,255,255,0.12)"/>
  <circle cx="37" cy="23" r="2" fill="rgba(255,255,255,0.12)"/>
  <circle cx="43" cy="23" r="2" fill="rgba(255,255,255,0.5)"/>
  <circle cx="49" cy="23" r="2" fill="rgba(255,255,255,0.12)"/>
  <circle cx="55" cy="23" r="2" fill="rgba(255,255,255,0.5)"/>
  <rect x="64" y="0" width="28" height="28" rx="4" fill="hsl(36, 82%, 36%)"/>
  <circle cx="69" cy="5" r="2" fill="rgba(255,255,255,0.12)"/>
  <circle cx="75" cy="5" r="2" fill="rgba(255,255,255,0.12)"/>
  <circle cx="81" cy="5" r="2" fill="rgba(255,255,255,0.12)"/>
  <circle cx="87" cy="5" r="2" fill="rgba(255,255,255,0.12)"/>
  <circle cx="69" cy="11" r="2" fill="rgba(255,255,255,0.12)"/>
  <circle cx="75" cy="11" r="2" fill="rgba(255,255,255,0.5)"/>
  <circle cx="81" cy="11" r="2" fill="rgba(255,255,255,0.12)"/>
  <circle cx="87" cy="11" r="2" fill="rgba(255,255,255,0.12)"/>
  <circle cx="69" cy="17" r="2" fill="rgba(255,255,255,0.5)"/>
  <circle cx="75" cy="17" r="2" fill="rgba(255,255,255,0.5)"/>
  <circle cx="81" cy="17" r="2" fill="rgba(255,255,255,0.5)"/>
  <circle cx="87" cy="17" r="2" fill="rgba(255,255,255,0.12)"/>
  <circle cx="69" cy="23" r="2" fill="rgba(255,255,255,0.12)"/>
  <circle cx="75" cy="23" r="2" fill="rgba(255,255,255,0.5)"/>
  <circle cx="81" cy="23" r="2" fill="rgba(255,255,255,0.12)"/>
  <circle cx="87" cy="23" r="2" fill="rgba(255,255,255,0.12)"/>
  <rect x="96" y="0" width="28" height="28" rx="4" fill="hsl(40, 87%, 40%)"/>
  <circle cx="101" cy="5" r="2" fill="rgba(255,255,255,0.5)"/>
  <circle cx="107" cy="5" r="2" fill="rgba(255,255,255,0.12)"/>
  <circle cx="113" cy="5" r="2" fill="rgba(255,255,255,0.12)"/>
  <circle cx="119" cy="5" r="2" fill="rgba(255,255,255,0.5)"/>
  <circle cx="101" cy="11" r="2" fill="rgba(255,255,255,0.12)"/>
  <circle cx="107" cy="11" r="2" fill="rgba(255,255,255,0.12)"/>
  <circle cx="113" cy="11" r="2" fill="rgba(255,255,255,0.5)"/>
  <circle cx="119" cy="11" r="2" fill="rgba(255,255,255,0.5)"/>
  <circle cx="101" cy="17" r="2" fill="rgba(255,255,255,0.12)"/>
  <circle cx="107" cy="17" r="2" fill="rgba(255,255,255,0.5)"/>
  <circle cx="113" cy="17" r="2" fill="rgba(255,255,255,0.5)"/>
  <circle cx="119" cy="17" r="2" fill="rgba(255,255,255,0.12)"/>
  <circle cx="101" cy="23" r="2" fill="rgba(255,255,255,0.12)"/>
  <circle cx="107" cy="23" r="2" fill="rgba(255,255,255,0.12)"/>
  <circle cx="113" cy="23" r="2" fill="rgba(255,255,255,0.12)"/>
  <circle cx="119" cy="23" r="2" fill="rgba(255,255,255,0.5)"/>
  <rect x="128" y="0" width="28" height="28" rx="4" fill="hsl(44, 80%, 44%)"/>
  <circle cx="133" cy="5" r="2" fill="rgba(255,255,255,0.12)"/>
  <circle cx="139" cy="5" r="2" fill="rgba(255,255,255,0.12)"/>
  <circle cx="145" cy="5" r="2" fill="rgba(255,255,255,0.12)"/>
  <circle cx="151" cy="5" r="2" fill="rgba(255,255,255,0.12)"/>
  <circle cx="133" cy="11" r="2" fill="rgba(255,255,255,0.12)"/>
  <circle cx="139" cy="11" r="2" fill="rgba(255,255,255,0.5)"/>
  <circle cx="145" cy="11" r="2" fill="rgba(255,255,255,0.5)"/>
  <circle cx="151" cy="11" r="2" fill="rgba(255,255,255,0.5)"/>
  <circle cx="133" cy="17" r="2" fill="rgba(255,255,255,0.5)"/>
  <circle cx="139" cy="17" r="2" fill="rgba(255,255,255,0.5)"/>
  <circle cx="145" cy="17" r="2" fill="rgba(255,255,255,0.12)"/>
  <circle cx="151" cy="17" r="2" fill="rgba(255,255,255,0.5)"/>
  <circle cx="133" cy="23" r="2" fill="rgba(255,255,255,0.12)"/>
  <circle cx="139" cy="23" r="2" fill="rgba(255,255,255,0.5)"/>
  <circle cx="145" cy="23" r="2" fill="rgba(255,255,255,0.12)"/>
  <circle cx="151" cy="23" r="2" fill="rgba(255,255,255,0.12)"/>
</svg>
