<svg xmlns="http://www.w3.org/2000/svg" viewBox="0 0 960 400">
  <rect width="960" height="400" fill="#0a0a0a"/>
  <rect x="0" y="0" width="34" height="28" rx="3" fill="#1a1a1a" stroke="rgba(190,131,14,0.15)" stroke-width="1" opacity="0.4"/>
  <rect x="37" y="0" width="70" height="28" rx="3" fill="#1a1a1a" stroke="rgba(190,131,14,0.15)" stroke-width="1" opacity="0.4"/>
  <rect x="110" y="0" width="34" height="28" rx="3" fill="#1a1a1a" stroke="rgba(190,131,14,0.15)" stroke-width="1" opacity="0.4"/>
  <rect x="147" y="0" width="58" height="28" rx="3" fill="#1a1a1a" stroke="rgba(190,131,14,0.15)" stroke-width="1" opacity="0.4"/>
  <rect x="208" y="0" width="34" height="28" rx="3" fill="#1a1a1a" stroke="rgba(190,131,14,0.15)" stroke-width="1" opacity="0.4"/>
  <rect x="245" y="0" width="58" height="28" rx="3" fill="#1a1a1a" stroke="rgba(190,131,14,0.15)" stroke-width="1" opacity="0.4"/>
  <rect x="306" y="0" width="22" height="28" rx="3" fill="#1a1a1a" stroke="rgba(190,131,14,0.15)" stroke-width="1" opacity="0.4"/>
  <rect x="331" y="0" width="70" height="28" rx="3" fill="#1a1a1a" stroke="rgba(190,131,14,0.15)" stroke-width="1" opacity="0.4"/>
  <rect x="404" y="0" width="58" height="28" rx="3" fill="#1a1a1a" stroke="rgba(190,131,14,0.15)" stroke-width="1" opacity="0.4"/>
  <rect x="465" y="0" width="34" height="28" rx="3" fill="#1a1a1a" stroke="rgba(190,131,14,0.15)" stroke-width="1" opacity="0.4"/>
  <rect x="502" y="0" width="34" height="28" rx="3" fill="#1a1a1a" stroke="rgba(190,131,14,0.15)" stroke-width="1" opacity="0.4"/>
  <rect x="539" y="0" width="46" height="28" rx="3" fill="#1a1a1a" stroke="rgba(190,131,14,0.15)" stroke-width="1" opacity="0.4"/>
  <rect x="588" y="0" width="34" height="28" rx="3" fill="#1a1a1a" stroke="rgba(190,131,14,0.15)" stroke-width="1" opacity="0.4"/>
  <rect x="625" y="0" width="46" height="28" rx="3" fill="#1a1a1a" stroke="rgba(190,131,14,0.15)" stroke-width="1" opacity="0.4"/>
  <rect x="674" y="0" width="46" height="28" rx="3" fill="#1a1a1a" stroke="rgba(190,131,14,0.15)" stroke-width="1" opacity="0.4"/>
  <rect x="723" y="0" width="22" height="28" rx="3" fill="#1a1a1a" stroke="rgba(190,131,14,0.15)" stroke-width="1" opacity="0.4"/>
  <rect x="748" y="0" width="58" height="28" rx="3" fill="#1a1a1a" stroke="rgba(190,131,14,0.15)" stroke-width="1" opacity="0.4"/>
  <rect x="809" y="0" width="34" height="28" rx="3" fill="#1a1a1a" stroke="rgba(190,131,14,0.15)" stroke-width="1" opacity="0.4"/>
  <rect x="846" y="0" width="34" height="28" rx="3" fill="#1a1a1a" stroke="rgba(190,131,14,0.15)" stroke-width="1" opacity="0.4"/>
  <rect x="883" y="0" width="58" height="28" rx="3" fill="#1a1a1a" stroke="rgba(190,131,14,0.15)" stroke-width="1" opacity="0.4"/>
  <rect x="0" y="31" width="46" height="28" rx="3" fill="#1a1a1a" stroke="rgba(190,131,14,0.15)" stroke-width="1" opacity="0.4"/>
  <rect x="49" y="31" width="34" height="28" rx="3" fill="#1a1a1a" stroke="rgba(190,131,14,0.15)" stroke-width="1" opacity="0.4"/>
  <rect x="86" y="31" width="22" height="28" rx="3" fill="#1a1a1a" stroke="rgba(190,131,14,0.15)" stroke-width="1" opacity="0.4"/>
  <rect x="111" y="31" width="58" height="28" rx="3" fill="#1a1a1a" stroke="rgba(190,131,14,0.15)" stroke-width="1" opacity="0.4"/>
  <rect x="172" y="31" width="82" height="28" rx="3" fill="#1a1a1a" stroke="rgba(190,131,14,0.15)" stroke-width="1" opacity="0.4"/>
  <rect x="257" y="31" width="82" height="28" rx="3" fill="#1a1a1a" stroke="rgba(190,131,14,0.15)" stroke-width="1" opacity="0.4"/>
  <rect x="342" y="31" width="82" height="28" rx="3" fill="#1a1a1a" stroke="rgba(190,131,14,0.15)" stroke-width="1" opacity="0.4"/>
  <rect x="427" y="31" width="34" height="28" rx="3" fill="#1a1a1a" stroke="rgba(190,131,14,0.15)" stroke-width="1" opacity="0.4"/>
  <rect x="464" y="31" width="46" height="28" rx="3" fill="#1a1a1a" stroke="rgba(190,131,14,0.15)" stroke-width="1" opacity="0.4"/>
  <rect x="513" y="31" width="58" height="28" rx="3" fill="#1a1a1a" stroke="rgba(190,131,14,0.15)" stroke-width="1" opacity="0.4"/>
  <rect x="574" y="31" width="22" height="28" rx="3" fill="#1a1a1a" stroke="rgba(190,131,14,0.15)" stroke-width="1" opacity="0.4"/>
  <rect x="599" y="31" width="82" height="28" rx="3" fill="#1a1a1a" stroke="rgba(190,131,14,0.15)" stroke-width="1" opacity="0.4"/>
  <rect x="684" y="31" width="58" height="28" rx="3" fill="#1a1a1a" stroke="rgba(190,131,14,0.15)" stroke-width="1" opacity="0.4"/>
  <rect x="745" y="31" width="46" height="28" rx="3" fill="#1a1a1a" stroke="rgba(190,131,14,0.15)" stroke-width="1" opacity="0.4"/>
  <rect x="794" y="31" width="34" height="28" rx="3" fill="#1a1a1a" stroke="rgba(190,131,14,0.15)" stroke-width="1" opacity="0.4"/>
  <rect x="831" y="31" width="58" height="28" rx="3" fill="#1a1a1a" stroke="rgba(190,131,14,0.15)" stroke-width="1" opacity="0.4"/>
  <rect x="892" y="31" width="46" height="28" rx="3" fill="#1a1a1a" stroke="rgba(190,131,14,0.15)" stroke-width="1" opacity="0.4"/>
  <rect x="0" y="62" width="46" height="28" rx="3" fill="#1a1a1a" stroke="rgba(190,131,14,0.15)" stroke-width="1" opacity="0.4"/>
  <rect x="49" y="62" width="46" height="28" rx="3" fill="#1a1a1a" stroke="rgba(190,131,14,0.15)" stroke-width="1" opacity="0.4"/>
  <rect x="98" y="62" width="34" height="28" rx="3" fill="#1a1a1a" stroke="rgba(190,131,14,0.15)" stroke-width="1" opacity="0.4"/>
  <rect x="135" y="62" width="70" height="28" rx="3" fill="#1a1a1a" stroke="rgba(190,131,14,0.15)" stroke-width="1" opacity="0.4"/>
  <rect x="208" y="62" width="94" height="28" rx="3" fill="#1a1a1a" stroke="rgba(190,131,14,0.15)" stroke-width="1" opacity="0.4"/>
  <rect x="305" y="62" width="46" height="28" rx="3" fill="#1a1a1a" stroke="rgba(190,131,14,0.15)" stroke-width="1" opacity="0.4"/>
  <rect x="403" y="62" width="34" height="28" rx="3" fill="#1a1a1a" stroke="rgba(190,131,14,0.15)" stroke-width="1" opacity="0.4"/>
  <rect x="440" y="62" width="58" height="28" rx="3" fill="#1a1a1a" stroke="rgba(190,131,14,0.15)" stroke-width="1" opacity="0.4"/>
  <rect x="501" y="62" width="70" height="28" rx="3" fill="#1a1a1a" stroke="rgba(190,131,14,0.15)" stroke-width="1" opacity="0.4"/>
  <rect x="574" y="62" width="22" height="28" rx="3" fill="#1a1a1a" stroke="rgba(190,131,14,0.15)" stroke-width="1" opacity="0.4"/>
  <rect x="599" y="62" width="70" height="28" rx="3" fill="#1a1a1a" stroke="rgba(190,131,14,0.15)" stroke-width="1" opacity="0.4"/>
  <rect x="672" y="62" width="94" height="28" rx="3" fill="#1a1a1a" stroke="rgba(190,131,14,0.15)" stroke-width="1" opacity="0.4"/>
  <rect x="769" y="62" width="58" height="28" rx="3" fill="#1a1a1a" stroke="rgba(190,131,14,0.15)" stroke-width="1" opacity="0.4"/>
  <rect x="830" y="62" width="34" height="28" rx="3" fill="#1a1a1a" stroke="rgba(190,131,14,0.15)" stroke-width="1" opacity="0.4"/>
  <rect x="867" y="62" width="34" height="28" rx="3" fill="#1a1a1a" stroke="rgba(190,131,14,0.15)" stroke-width="1" opacity="0.4"/>
  <rect x="904" y="62" width="46" height="28" rx="3" fill="#1a1a1a" stroke="rgba(190,131,14,0.15)" stroke-width="1" opacity="0.4"/>
  <rect x="0" y="93" width="58" height="28" rx="3" fill="#1a1a1a" stroke="rgba(190,131,14,0.15)" stroke-width="1" opacity="0.4"/>
  <rect x="61" y="93" width="46" height="28" rx="3" fill="#1a1a1a" stroke="rgba(190,131,14,0.15)" stroke-width="1" opacity="0.4"/>
  <rect x="110" y="93" width="46" height="28" rx="3" fill="#1a1a1a" stroke="rgba(190,131,14,0.15)" stroke-width="1" opacity="0.4"/>
  <rect x="159" y="93" width="70" height="28" rx="3" fill="#1a1a1a" stroke="rgba(190,131,14,0.15)" stroke-width="1" opacity="0.4"/>
  <rect x="232" y="93" width="22" height="28" rx="3" fill="#1a1a1a" stroke="rgba(190,131,14,0.15)" stroke-width="1" opacity="0.4"/>
  <rect x="257" y="93" width="58" height="28" rx="3" fill="#1a1a1a" stroke="rgba(190,131,14,0.15)" stroke-width="1" opacity="0.4"/>
  <rect x="318" y="93" width="82" height="28" rx="3" fill="#1a1a1a" stroke="rgba(190,131,14,0.15)" stroke-width="1" opacity="0.4"/>
  <rect x="403" y="93" width="58" height="28" rx="3" fill="#1a1a1a" stroke="rgba(190,131,14,0.15)" stroke-width="1" opacity="0.4"/>
  <rect x="464" y="93" width="34" height="28" rx="3" fill="#1a1a1a" stroke="rgba(190,131,14,0.15)" stroke-width="1" opacity="0.4"/>
  <rect x="501" y="93" width="58" height="28" rx="3" fill="#1a1a1a" stroke="rgba(190,131,14,0.15)" stroke-width="1" opacity="0.4"/>
  <rect x="562" y="93" width="34" height="28" rx="3" fill="#1a1a1a" stroke="rgba(190,131,14,0.15)" stroke-width="1" opacity="0.4"/>
  <rect x="599" y="93" width="46" height="28" rx="3" fill="#1a1a1a" stroke="rgba(190,131,14,0.15)" stroke-width="1" opacity="0.4"/>
  <rect x="648" y="93" width="34" height="28" rx="3" fill="#1a1a1a" stroke="rgba(190,131,14,0.15)" stroke-width="1" opacity="0.4"/>
  <rect x="685" y="93" width="58" height="28" rx="3" fill="#1a1a1a" stroke="rgba(190,131,14,0.15)" stroke-width="1" opacity="0.4"/>
  <rect x="746" y="93" width="34" height="28" rx="3" fill="#1a1a1a" stroke="rgba(190,131,14,0.15)" stroke-width="1" opacity="0.4"/>
  <rect x="783" y="93" width="58" height="28" rx="3" fill="#1a1a1a" stroke="rgba(190,131,14,0.15)" stroke-width="1" opacity="0.4"/>
  <rect x="844" y="93" width="46" height="28" rx="3" fill="#1a1a1a" stroke="rgba(190,131,14,0.15)" stroke-width="1" opacity="0.4"/>
  <rect x="893" y="93" width="46" height="28" rx="3" fill="#1a1a1a" stroke="rgba(190,131,14,0.15)" stroke-width="1" opacity="0.4"/>
  <rect x="0" y="124" width="46" height="28" rx="3" fill="#1a1a1a" stroke="rgba(190,131,14,0.15)" stroke-width="1" opacity="0.4"/>
  <rect x="49" y="124" width="82" height="28" rx="3" fill="#1a1a1a" stroke="rgba(190,131,14,0.15)" stroke-width="1" opacity="0.4"/>
  <rect x="134" y="124" width="46" height="28" rx="3" fill="#1a1a1a" stroke="rgba(190,131,14,0.15)" stroke-width="1" opacity="0.4"/>
  <rect x="183" y="124" width="46" height="28" rx="3" fill="#1a1a1a" stroke="rgba(190,131,14,0.15)" stroke-width="1" opacity="0.4"/>
  <rect x="232" y="124" width="34" height="28" rx="3" fill="#1a1a1a" stroke="rgba(190,131,14,0.15)" stroke-width="1" opacity="0.4"/>
  <rect x="269" y="124" width="34" height="28" rx="3" fill="#1a1a1a" stroke="rgba(190,131,14,0.15)" stroke-width="1" opacity="0.4"/>
  <rect x="306" y="124" width="58" height="28" rx="3" fill="#1a1a1a" stroke="rgba(190,131,14,0.15)" stroke-width="1" opacity="0.4"/>
  <rect x="367" y="124" width="34" height="28" rx="3" fill="#1a1a1a" stroke="rgba(190,131,14,0.15)" stroke-width="1" opacity="0.4"/>
  <rect x="404" y="124" width="46" height="28" rx="3" fill="#1a1a1a" stroke="rgba(190,131,14,0.15)" stroke-width="1" opacity="0.4"/>
  <rect x="453" y="124" width="46" height="28" rx="3" fill="#1a1a1a" stroke="rgba(190,131,14,0.15)" stroke-width="1" opacity="0.4"/>
  <rect x="502" y="124" width="58" height="28" rx="3" fill="#1a1a1a" stroke="rgba(190,131,14,0.15)" stroke-width="1" opacity="0.4"/>
  <rect x="563" y="124" width="46" height="28" rx="3" fill="#1a1a1a" stroke="rgba(190,131,14,0.15)" stroke-width="1" opacity="0.4"/>
  <rect x="612" y="124" width="58" height="28" rx="3" fill="#1a1a1a" stroke="rgba(190,131,14,0.15)" stroke-width="1" opacity="0.4"/>
  <rect x="673" y="124" width="70" height="28" rx="3" fill="#1a1a1a" stroke="rgba(190,131,14,0.15)" stroke-width="1" opacity="0.4"/>
  <rect x="746" y="124" width="34" height="28" rx="3" fill="#1a1a1a" stroke="rgba(190,131,14,0.15)" stroke-width="1" opacity="0.4"/>
  <rect x="783" y="124" width="46" height="28" rx="3" fill="#1a1a1a" stroke="rgba(190,131,14,0.15)" stroke-width="1" opacity="0.4"/>
  <rect x="832" y="124" width="82" height="28" rx="3" fill="#1a1a1a" stroke="rgba(190,131,14,0.15)" stroke-width="1" opacity="0.4"/>
  <rect x="917" y="124" width="34" height="28" rx="3" fill="#1a1a1a" stroke="rgba(190,131,14,0.15)" stroke-width="1" opacity="0.4"/>
  <rect x="0" y="155" width="70" height="28" rx="3" fill="#1a1a1a" stroke="rgba(190,131,14,0.15)" stroke-width="1" opacity="0.4"/>
  <rect x="73" y="155" width="46" height="28" rx="3" fill="#1a1a1a" stroke="rgba(190,131,14,0.15)" stroke-width="1" opacity="0.4"/>
  <rect x="122" y="155" width="94" height="28" rx="3" fill="#1a1a1a" stroke="rgba(190,131,14,0.15)" stroke-width="1" opacity="0.4"/>
  <rect x="219" y="155" width="70" height="28" rx="3" fill="#1a1a1a" stroke="rgba(190,131,14,0.15)" stroke-width="1" opacity="0.4"/>
  <rect x="292" y="155" width="58" height="28" rx="3" fill="#1a1a1a" stroke="rgba(190,131,14,0.15)" stroke-width="1" opacity="0.4"/>
  <rect x="353" y="155" width="22" height="28" rx="3" fill="#1a1a1a" stroke="rgba(190,131,14,0.15)" stroke-width="1" opacity="0.4"/>
  <rect x="378" y="155" width="46" height="28" rx="3" fill="#1a1a1a" stroke="rgba(190,131,14,0.15)" stroke-width="1" opacity="0.4"/>
  <rect x="427" y="155" width="70" height="28" rx="3" fill="#1a1a1a" stroke="rgba(190,131,14,0.15)" stroke-width="1" opacity="0.4"/>
  <rect x="500" y="155" width="70" height="28" rx="3" fill="#1a1a1a" stroke="rgba(190,131,14,0.15)" stroke-width="1" opacity="0.4"/>
  <rect x="573" y="155" width="70" height="28" rx="3" fill="#1a1a1a" stroke="rgba(190,131,14,0.15)" stroke-width="1" opacity="0.4"/>
  <rect x="646" y="155" width="58" height="28" rx="3" fill="#1a1a1a" stroke="rgba(190,131,14,0.15)" stroke-width="1" opacity="0.4"/>
  <rect x="707" y="155" width="46" height="28" rx="3" fill="#1a1a1a" stroke="rgba(190,131,14,0.15)" stroke-width="1" opacity="0.4"/>
  <rect x="756" y="155" width="58" height="28" rx="3" fill="#1a1a1a" stroke="rgba(190,131,14,0.15)" stroke-width="1" opacity="0.4"/>
  <rect x="817" y="155" width="82" height="28" rx="3" fill="#1a1a1a" stroke="rgba(190,131,14,0.15)" stroke-width="1" opacity="0.4"/>
  <rect x="902" y="155" width="46" height="28" rx="3" fill="#1a1a1a" stroke="rgba(190,131,14,0.15)" stroke-width="1" opacity="0.4"/>
  <rect x="0" y="186" width="34" height="28" rx="3" fill="#1a1a1a" stroke="rgba(190,131,14,0.15)" stroke-width="1" opacity="0.4"/>
  <rect x="37" y="186" width="22" height="28" rx="3" fill="#1a1a1a" stroke="rgba(190,131,14,0.15)" stroke-width="1" opacity="0.4"/>
  <rect x="62" y="186" width="58" height="28" rx="3" fill="#1a1a1a" stroke="rgba(190,131,14,0.15)" stroke-width="1" opacity="0.4"/>
  <rect x="123" y="186" width="94" height="28" rx="3" fill="#1a1a1a" stroke="rgba(190,131,14,0.15)" stroke-width="1" opacity="0.4"/>
  <rect x="220" y="186" width="46" height="28" rx="3" fill="#1a1a1a" stroke="rgba(190,131,14,0.15)" stroke-width="1" opacity="0.4"/>
  <rect x="269" y="186" width="34" height="28" rx="3" fill="#1a1a1a" stroke="rgba(190,131,14,0.15)" stroke-width="1" opacity="0.4"/>
  <rect x="306" y="186" width="34" height="28" rx="3" fill="#1a1a1a" stroke="rgba(190,131,14,0.15)" stroke-width="1" opacity="0.4"/>
  <rect x="380" y="186" width="34" height="28" rx="3" fill="#1a1a1a" stroke="rgba(190,131,14,0.15)" stroke-width="1" opacity="0.4"/>
  <rect x="417" y="186" width="58" height="28" rx="3" fill="#1a1a1a" stroke="rgba(190,131,14,0.15)" stroke-width="1" opacity="0.4"/>
  <rect x="478" y="186" width="70" height="28" rx="3" fill="#1a1a1a" stroke="rgba(190,131,14,0.15)" stroke-width="1" opacity="0.4"/>
  <rect x="551" y="186" width="34" height="28" rx="3" fill="#1a1a1a" stroke="rgba(190,131,14,0.15)" stroke-width="1" opacity="0.4"/>
  <rect x="588" y="186" width="46" height="28" rx="3" fill="#1a1a1a" stroke="rgba(190,131,14,0.15)" stroke-width="1" opacity="0.4"/>
  <rect x="637" y="186" width="46" height="28" rx="3" fill="#1a1a1a" stroke="rgba(190,131,14,0.15)" stroke-width="1" opacity="0.4"/>
  <rect x="686" y="186" width="46" height="28" rx="3" fill="#1a1a1a" stroke="rgba(190,131,14,0.15)" stroke-width="1" opacity="0.4"/>
  <rect x="735" y="186" width="46" height="28" rx="3" fill="#1a1a1a" stroke="rgba(190,131,14,0.15)" stroke-width="1" opacity="0.4"/>
  <rect x="784" y="186" width="46" height="28" rx="3" fill="#1a1a1a" stroke="rgba(190,131,14,0.15)" stroke-width="1" opacity="0.4"/>
  <rect x="833" y="186" width="46" height="28" rx="3" fill="#1a1a1a" stroke="rgba(190,131,14,0.15)" stroke-width="1" opacity="0.4"/>
  <rect x="882" y="186" width="58" height="28" rx="3" fill="#1a1a1a" stroke="rgba(190,131,14,0.15)" stroke-width="1" opacity="0.4"/>
  <rect x="0" y="217" width="34" height="28" rx="3" fill="#1a1a1a" stroke="rgba(190,131,14,0.15)" stroke-width="1" opacity="0.4"/>
  <rect x="37" y="217" width="34" height="28" rx="3" fill="#1a1a1a" stroke="rgba(190,131,14,0.15)" stroke-width="1" opacity="0.4"/>
  <rect x="74" y="217" width="22" height="28" rx="3" fill="#1a1a1a" stroke="rgba(190,131,14,0.15)" stroke-width="1" opacity="0.4"/>
  <rect x="99" y="217" width="46" height="28" rx="3" fill="#1a1a1a" stroke="rgba(190,131,14,0.15)" stroke-width="1" opacity="0.4"/>
  <rect x="148" y="217" width="22" height="28" rx="3" fill="#1a1a1a" stroke="rgba(190,131,14,0.15)" stroke-width="1" opacity="0.4"/>
  <rect x="173" y="217" width="22" height="28" rx="3" fill="#1a1a1a" stroke="rgba(190,131,14,0.15)" stroke-width="1" opacity="0.4"/>
  <rect x="198" y="217" width="34" height="28" rx="3" fill="#1a1a1a" stroke="rgba(190,131,14,0.15)" stroke-width="1" opacity="0.4"/>
  <rect x="235" y="217" width="58" height="28" rx="3" fill="#1a1a1a" stroke="rgba(190,131,14,0.15)" stroke-width="1" opacity="0.4"/>
  <rect x="296" y="217" width="94" height="28" rx="3" fill="#1a1a1a" stroke="rgba(190,131,14,0.15)" stroke-width="1" opacity="0.4"/>
  <rect x="393" y="217" width="58" height="28" rx="3" fill="#1a1a1a" stroke="rgba(190,131,14,0.15)" stroke-width="1" opacity="0.4"/>
  <rect x="454" y="217" width="46" height="28" rx="3" fill="#1a1a1a" stroke="rgba(190,131,14,0.15)" stroke-width="1" opacity="0.4"/>
  <rect x="503" y="217" width="46" height="28" rx="3" fill="#1a1a1a" stroke="rgba(190,131,14,0.15)" stroke-width="1" opacity="0.4"/>
  <rect x="552" y="217" width="22" height="28" rx="3" fill="#1a1a1a" stroke="rgba(190,131,14,0.15)" stroke-width="1" opacity="0.4"/>
  <rect x="577" y="217" width="22" height="28" rx="3" fill="#1a1a1a" stroke="rgba(190,131,14,0.15)" stroke-width="1" opacity="0.4"/>
  <rect x="602" y="217" width="58" height="28" rx="3" fill="#1a1a1a" stroke="rgba(190,131,14,0.15)" stroke-width="1" opacity="0.4"/>
  <rect x="663" y="217" width="58" height="28" rx="3" fill="#1a1a1a" stroke="rgba(190,131,14,0.15)" stroke-width="1" opacity="0.4"/>
  <rect x="724" y="217" width="22" height="28" rx="3" fill="#1a1a1a" stroke="rgba(190,131,14,0.15)" stroke-width="1" opacity="0.4"/>
  <rect x="749" y="217" width="46" height="28" rx="3" fill="#1a1a1a" stroke="rgba(190,131,14,0.15)" stroke-width="1" opacity="0.4"/>
  <rect x="798" y="217" width="70" height="28" rx="3" fill="#1a1a1a" stroke="rgba(190,131,14,0.15)" stroke-width="1" opacity="0.4"/>
  <rect x="871" y="217" width="34" height="28" rx="3" fill="#1a1a1a" stroke="rgba(190,131,14,0.15)" stroke-width="1" opacity="0.4"/>
  <rect x="0" y="248" width="94" height="28" rx="3" fill="#1a1a1a" stroke="rgba(190,131,14,0.15)" stroke-width="1" opacity="0.4"/>
  <rect x="97" y="248" width="46" height="28" rx="3" fill="#1a1a1a" stroke="rgba(190,131,14,0.15)" stroke-width="1" opacity="0.4"/>
  <rect x="146" y="248" width="82" height="28" rx="3" fill="#1a1a1a" stroke="rgba(190,131,14,0.15)" stroke-width="1" opacity="0.4"/>
  <rect x="231" y="248" width="58" height="28" rx="3" fill="#1a1a1a" stroke="rgba(190,131,14,0.15)" stroke-width="1" opacity="0.4"/>
  <rect x="292" y="248" width="46" height="28" rx="3" fill="#1a1a1a" stroke="rgba(190,131,14,0.15)" stroke-width="1" opacity="0.4"/>
  <rect x="341" y="248" width="70" height="28" rx="3" fill="#1a1a1a" stroke="rgba(190,131,14,0.15)" stroke-width="1" opacity="0.4"/>
  <rect x="451" y="248" width="58" height="28" rx="3" fill="#1a1a1a" stroke="rgba(190,131,14,0.15)" stroke-width="1" opacity="0.4"/>
  <rect x="512" y="248" width="46" height="28" rx="3" fill="#1a1a1a" stroke="rgba(190,131,14,0.15)" stroke-width="1" opacity="0.4"/>
  <rect x="561" y="248" width="94" height="28" rx="3" fill="#1a1a1a" stroke="rgba(190,131,14,0.15)" stroke-width="1" opacity="0.4"/>
  <rect x="658" y="248" width="46" height="28" rx="3" fill="#1a1a1a" stroke="rgba(190,131,14,0.15)" stroke-width="1" opacity="0.4"/>
  <rect x="707" y="248" width="58" height="28" rx="3" fill="#1a1a1a" stroke="rgba(190,131,14,0.15)" stroke-width="1" opacity="0.4"/>
  <rect x="768" y="248" width="46" height="28" rx="3" fill="#1a1a1a" stroke="rgba(190,131,14,0.15)" stroke-width="1" opacity="0.4"/>
  <rect x="817" y="248" width="46" height="28" rx="3" fill="#1a1a1a" stroke="rgba(190,131,14,0.15)" stroke-width="1" opacity="0.4"/>
  <rect x="866" y="248" width="46" height="28" rx="3" fill="#1a1a1a" stroke="rgba(190,131,14,0.15)" stroke-width="1" opacity="0.4"/>
  <rect x="0" y="279" width="46" height="28" rx="3" fill="#1a1a1a" stroke="rgba(190,131,14,0.15)" stroke-width="1" opacity="0.4"/>
  <rect x="49" y="279" width="58" height="28" rx="3" fill="#1a1a1a" stroke="rgba(190,131,14,0.15)" stroke-width="1" opacity="0.4"/>
  <rect x="110" y="279" width="58" height="28" rx="3" fill="#1a1a1a" stroke="rgba(190,131,14,0.15)" stroke-width="1" opacity="0.4"/>
  <rect x="171" y="279" width="34" height="28" rx="3" fill="#1a1a1a" stroke="rgba(190,131,14,0.15)" stroke-width="1" opacity="0.4"/>
  <rect x="208" y="279" width="46" height="28" rx="3" fill="#1a1a1a" stroke="rgba(190,131,14,0.15)" stroke-width="1" opacity="0.4"/>
  <rect x="257" y="279" width="58" height="28" rx="3" fill="#1a1a1a" stroke="rgba(190,131,14,0.15)" stroke-width="1" opacity="0.4"/>
  <rect x="318" y="279" width="58" height="28" rx="3" fill="#1a1a1a" stroke="rgba(190,131,14,0.15)" stroke-width="1" opacity="0.4"/>
  <rect x="379" y="279" width="34" height="28" rx="3" fill="#1a1a1a" stroke="rgba(190,131,14,0.15)" stroke-width="1" opacity="0.4"/>
  <rect x="477" y="279" width="82" height="28" rx="3" fill="#1a1a1a" stroke="rgba(190,131,14,0.15)" stroke-width="1" opacity="0.4"/>
  <rect x="562" y="279" width="46" height="28" rx="3" fill="#1a1a1a" stroke="rgba(190,131,14,0.15)" stroke-width="1" opacity="0.4"/>
  <rect x="611" y="279" width="46" height="28" rx="3" fill="#1a1a1a" stroke="rgba(190,131,14,0.15)" stroke-width="1" opacity="0.4"/>
  <rect x="660" y="279" width="58" height="28" rx="3" fill="#1a1a1a" stroke="rgba(190,131,14,0.15)" stroke-width="1" opacity="0.4"/>
  <rect x="721" y="279" width="46" height="28" rx="3" fill="#1a1a1a" stroke="rgba(190,131,14,0.15)" stroke-width="1" opacity="0.4"/>
  <rect x="770" y="279" width="58" height="28" rx="3" fill="#1a1a1a" stroke="rgba(190,131,14,0.15)" stroke-width="1" opacity="0.4"/>
  <rect x="831" y="279" width="22" height="28" rx="3" fill="#1a1a1a" stroke="rgba(190,131,14,0.15)" stroke-width="1" opacity="0.4"/>
  <rect x="856" y="279" width="22" height="28" rx="3" fill="#1a1a1a" stroke="rgba(190,131,14,0.15)" stroke-width="1" opacity="0.4"/>
  <rect x="881" y="279" width="46" height="28" rx="3" fill="#1a1a1a" stroke="rgba(190,131,14,0.15)" stroke-width="1" opacity="0.4"/>
  <rect x="0" y="310" width="70" height="28" rx="3" fill="#1a1a1a" stroke="rgba(190,131,14,0.15)" stroke-width="1" opacity="0.4"/>
  <rect x="73" y="310" width="22" height="28" rx="3" fill="#1a1a1a" stroke="rgba(190,131,14,0.15)" stroke-width="1" opacity="0.4"/>
  <rect x="98" y="310" width="34" height="28" rx="3" fill="#1a1a1a" stroke="rgba(190,131,14,0.15)" stroke-width="1" opacity="0.4"/>
  <rect x="135" y="310" width="34" height="28" rx="3" fill="#1a1a1a" stroke="rgba(190,131,14,0.15)" stroke-width="1" opacity="0.4"/>
  <rect x="172" y="310" width="58" height="28" rx="3" fill="#1a1a1a" stroke="rgba(190,131,14,0.15)" stroke-width="1" opacity="0.4"/>
  <rect x="233" y="310" width="82" height="28" rx="3" fill="#1a1a1a" stroke="rgba(190,131,14,0.15)" stroke-width="1" opacity="0.4"/>
  <rect x="318" y="310" width="22" height="28" rx="3" fill="#1a1a1a" stroke="rgba(190,131,14,0.15)" stroke-width="1" opacity="0.4"/>
  <rect x="343" y="310" width="34" height="28" rx="3" fill="#1a1a1a" stroke="rgba(190,131,14,0.15)" stroke-width="1" opacity="0.4"/>
  <rect x="380" y="310" width="34" height="28" rx="3" fill="#1a1a1a" stroke="rgba(190,131,14,0.15)" stroke-width="1" opacity="0.4"/>
  <rect x="417" y="310" width="58" height="28" rx="3" fill="#1a1a1a" stroke="rgba(190,131,14,0.15)" stroke-width="1" opacity="0.4"/>
  <rect x="478" y="310" width="46" height="28" rx="3" fill="#1a1a1a" stroke="rgba(190,131,14,0.15)" stroke-width="1" opacity="0.4"/>
  <rect x="527" y="310" width="34" height="28" rx="3" fill="#1a1a1a" stroke="rgba(190,131,14,0.15)" stroke-width="1" opacity="0.4"/>
  <rect x="564" y="310" width="58" height="28" rx="3" fill="#1a1a1a" stroke="rgba(190,131,14,0.15)" stroke-width="1" opacity="0.4"/>
  <rect x="625" y="310" width="34" height="28" rx="3" fill="#1a1a1a" stroke="rgba(190,131,14,0.15)" stroke-width="1" opacity="0.4"/>
  <rect x="662" y="310" width="22" height="28" rx="3" fill="#1a1a1a" stroke="rgba(190,131,14,0.15)" stroke-width="1" opacity="0.4"/>
  <rect x="687" y="310" width="34" height="28" rx="3" fill="#1a1a1a" stroke="rgba(190,131,14,0.15)" stroke-width="1" opacity="0.4"/>
  <rect x="724" y="310" width="94" height="28" rx="3" fill="#1a1a1a" stroke="rgba(190,131,14,0.15)" stroke-width="1" opacity="0.4"/>
  <rect x="821" y="310" width="70" height="28" rx="3" fill="#1a1a1a" stroke="rgba(190,131,14,0.15)" stroke-width="1" opacity="0.4"/>
  <rect x="894" y="310" width="58" height="28" rx="3" fill="#1a1a1a" stroke="rgba(190,131,14,0.15)" stroke-width="1" opacity="0.4"/>
  <rect x="0" y="341" width="58" height="28" rx="3" fill="#1a1a1a" stroke="rgba(190,131,14,0.15)" stroke-width="1" opacity="0.4"/>
  <rect x="61" y="341" width="46" height="28" rx="3" fill="#1a1a1a" stroke="rgba(190,131,14,0.15)" stroke-width="1" opacity="0.4"/>
  <rect x="110" y="341" width="70" height="28" rx="3" fill="#1a1a1a" stroke="rgba(190,131,14,0.15)" stroke-width="1" opacity="0.4"/>
  <rect x="183" y="341" width="34" height="28" rx="3" fill="#1a1a1a" stroke="rgba(190,131,14,0.15)" stroke-width="1" opacity="0.4"/>
  <rect x="220" y="341" width="70" height="28" rx="3" fill="#1a1a1a" stroke="rgba(190,131,14,0.15)" stroke-width="1" opacity="0.4"/>
  <rect x="293" y="341" width="70" height="28" rx="3" fill="#1a1a1a" stroke="rgba(190,131,14,0.15)" stroke-width="1" opacity="0.4"/>
  <rect x="366" y="341" width="46" height="28" rx="3" fill="#1a1a1a" stroke="rgba(190,131,14,0.15)" stroke-width="1" opacity="0.4"/>
  <rect x="415" y="341" width="34" height="28" rx="3" fill="#1a1a1a" stroke="rgba(190,131,14,0.15)" stroke-width="1" opacity="0.4"/>
  <rect x="452" y="341" width="58" height="28" rx="3" fill="#1a1a1a" stroke="rgba(190,131,14,0.15)" stroke-width="1" opacity="0.4"/>
  <rect x="513" y="341" width="34" height="28" rx="3" fill="#1a1a1a" stroke="rgba(190,131,14,0.15)" stroke-width="1" opacity="0.4"/>
  <rect x="550" y="341" width="34" height="28" rx="3" fill="#1a1a1a" stroke="rgba(190,131,14,0.15)" stroke-width="1" opacity="0.4"/>
  <rect x="587" y="341" width="58" height="28" rx="3" fill="#1a1a1a" stroke="rgba(190,131,14,0.15)" stroke-width="1" opacity="0.4"/>
  <rect x="648" y="341" width="58" height="28" rx="3" fill="#1a1a1a" stroke="rgba(190,131,14,0.15)" stroke-width="1" opacity="0.4"/>
  <rect x="709" y="341" width="82" height="28" rx="3" fill="#1a1a1a" stroke="rgba(190,131,14,0.15)" stroke-width="1" opacity="0.4"/>
  <rect x="794" y="341" width="58" height="28" rx="3" fill="#1a1a1a" stroke="rgba(190,131,14,0.15)" stroke-width="1" opacity="0.4"/>
  <rect x="855" y="341" width="94" height="28" rx="3" fill="#1a1a1a" stroke="rgba(190,131,14,0.15)" stroke-width="1" opacity="0.4"/>
  <rect x="0" y="372" width="34" height="28" rx="3" fill="#1a1a1a" stroke="rgba(190,131,14,0.15)" stroke-width="1" opacity="0.4"/>
  <rect x="86" y="372" width="46" height="28" rx="3" fill="#1a1a1a" stroke="rgba(190,131,14,0.15)" stroke-width="1" opacity="0.4"/>
  <rect x="135" y="372" width="70" height="28" rx="3" fill="#1a1a1a" stroke="rgba(190,131,14,0.15)" stroke-width="1" opacity="0.4"/>
  <rect x="208" y="372" width="70" height="28" rx="3" fill="#1a1a1a" stroke="rgba(190,131,14,0.15)" stroke-width="1" opacity="0.4"/>
  <rect x="281" y="372" width="34" height="28" rx="3" fill="#1a1a1a" stroke="rgba(190,131,14,0.15)" stroke-width="1" opacity="0.4"/>
  <rect x="318" y="372" width="46" height="28" rx="3" fill="#1a1a1a" stroke="rgba(190,131,14,0.15)" stroke-width="1" opacity="0.4"/>
  <rect x="367" y="372" width="70" height="28" rx="3" fill="#1a1a1a" stroke="rgba(190,131,14,0.15)" stroke-width="1" opacity="0.4"/>
  <rect x="440" y="372" width="34" height="28" rx="3" fill="#1a1a1a" stroke="rgba(190,131,14,0.15)" stroke-width="1" opacity="0.4"/>
  <rect x="477" y="372" width="34" height="28" rx="3" fill="#1a1a1a" stroke="rgba(190,131,14,0.15)" stroke-width="1" opacity="0.4"/>
  <rect x="514" y="372" width="46" height="28" rx="3" fill="#1a1a1a" stroke="rgba(190,131,14,0.15)" stroke-width="1" opacity="0.4"/>
  <rect x="563" y="372" width="46" height="28" rx="3" fill="#1a1a1a" stroke="rgba(190,131,14,0.15)" stroke-width="1" opacity="0.4"/>
  <rect x="612" y="372" width="34" height="28" rx="3" fill="#1a1a1a" stroke="rgba(190,131,14,0.15)" stroke-width="1" opacity="0.4"/>
  <rect x="649" y="372" width="70" height="28" rx="3" fill="#1a1a1a" stroke="rgba(190,131,14,0.15)" stroke-width="1" opacity="0.4"/>
  <rect x="722" y="372" width="34" height="28" rx="3" fill="#1a1a1a" stroke="rgba(190,131,14,0.15)" stroke-width="1" opacity="0.4"/>
  <rect x="759" y="372" width="70" height="28" rx="3" fill="#1a1a1a" stroke="rgba(190,131,14,0.15)" stroke-width="1" opacity="0.4"/>
  <rect x="832" y="372" width="46" height="28" rx="3" fill="#1a1a1a" stroke="rgba(190,131,14,0.15)" stroke-width="1" opacity="0.4"/>
  <rect x="881" y="372" width="46" height="28" rx="3" fill="#1a1a1a" stroke="rgba(190,131,14,0.15)" stroke-width="1" opacity="0.4"/>
  <rect x="312" y="98" width="96" height="96" rx="3" fill="hsl(38, 90%, 38%)"/>
  <path fill="white" d="M353.52 168.30L325.70 168.30L325.70 117.56L318.48 117.56L318.48 174.44L353.52 174.44L353.52 168.30ZM401.52 168.30L373.71 168.30L373.71 117.56L366.48 117.56L366.48 174.44L401.52 174.44L401.52 168.30Z"/>
  <rect x="408" y="98" width="96" height="96" rx="3" fill="hsl(42, 85%, 42%)"/>
  <path fill="white" d="M432.04 145.61L422.78 117.17L413.83 117.17L413.83 174.05L420.86 174.05L420.86 151.35L420.28 128.42L429.93 158.23L434.07 158.23L444.57 127.60L443.99 151.35L443.99 174.05L451.02 174.05L451.02 117.17L442.04 117.17L432.04 145.61ZM490.94 162.84L490.94 162.84Q490.94 163.85 490.55 164.75Q490.16 165.65 489.42 166.39L489.42 166.39Q488.21 167.60 486.06 168.29Q483.91 168.97 481.02 168.97L481.02 168.97Q479.18 168.97 477.31 168.58Q475.43 168.19 473.91 167.25L473.91 167.25Q472.35 166.31 471.31 164.79Q470.28 163.27 470.12 161.04L470.12 161.04L462.89 161.04Q462.89 163.73 464.13 166.23Q465.36 168.73 467.70 170.61L467.70 170.61Q470.00 172.52 473.36 173.68Q476.72 174.83 481.02 174.83L481.02 174.83Q484.77 174.83 487.93 173.93Q491.10 173.03 493.36 171.39L493.36 171.39Q495.63 169.75 496.90 167.45Q498.17 165.14 498.17 162.33L498.17 162.33Q498.17 159.71 497.05 157.72Q495.94 155.73 493.83 154.20L493.83 154.20Q491.72 152.72 488.64 151.64Q485.55 150.57 481.64 149.75L481.64 149.75Q478.68 149.16 476.74 148.54Q474.81 147.91 473.68 147.13L473.68 147.13Q472.50 146.35 472.04 145.38Q471.57 144.40 471.57 143.15L471.57 143.15Q471.57 141.94 472.15 140.80Q472.74 139.67 473.91 138.81L473.91 138.81Q475.04 137.95 476.78 137.45Q478.52 136.94 480.82 136.94L480.82 136.94Q483.05 136.94 484.83 137.56Q486.61 138.19 487.86 139.20L487.86 139.20Q489.11 140.22 489.81 141.53Q490.51 142.84 490.51 144.20L490.51 144.20L497.74 144.20Q497.74 141.43 496.55 139.03Q495.36 136.63 493.17 134.83L493.17 134.83Q490.98 133.03 487.86 132.02Q484.73 131 480.82 131L480.82 131Q477.19 131 474.16 131.98Q471.14 132.95 468.95 134.63L468.95 134.63Q466.76 136.31 465.55 138.56Q464.34 140.80 464.34 143.38L464.34 143.38Q464.34 146 465.51 147.97Q466.68 149.95 468.83 151.39L468.83 151.39Q470.94 152.88 473.93 153.93Q476.92 154.98 480.55 155.73L480.55 155.73Q483.52 156.31 485.51 157.04Q487.50 157.76 488.71 158.62L488.71 158.62Q489.93 159.48 490.43 160.51Q490.94 161.55 490.94 162.84Z"/>
  <rect x="504" y="98" width="144" height="96" rx="3" fill="hsl(36, 82%, 36%)"/>
  <path fill="white" d="M571.06 155.69L570.98 117.17L563.99 117.17L563.87 155.69Q563.79 158.23 563.05 160.57Q562.31 162.91 560.90 164.71L560.90 164.71Q559.46 166.55 557.35 167.62Q555.24 168.70 552.46 168.70L552.46 168.70Q549.69 168.70 547.56 167.60Q545.43 166.51 544.03 164.71L544.03 164.71Q542.58 162.91 541.82 160.57Q541.06 158.23 541.02 155.69L541.02 155.69L540.86 117.17L533.99 117.17L533.91 155.69Q533.95 159.67 535.32 163.17Q536.68 166.66 539.11 169.24L539.11 169.24Q541.53 171.86 544.93 173.34Q548.32 174.83 552.46 174.83L552.46 174.83Q556.53 174.83 559.93 173.32Q563.32 171.82 565.79 169.20L565.79 169.20Q568.25 166.63 569.65 163.15Q571.06 159.67 571.06 155.69L571.06 155.69ZM583.29 131.78L583.29 174.05L590.51 174.05L590.51 143.73Q591.25 142.37 592.25 141.23Q593.25 140.10 594.42 139.24L594.42 139.24Q595.86 138.27 597.58 137.70Q599.30 137.13 601.29 137.13L601.29 137.13Q603.60 137.13 605.38 137.68Q607.15 138.23 608.40 139.44L608.40 139.44Q609.61 140.65 610.24 142.60Q610.86 144.55 610.86 147.37L610.86 147.37L610.86 174.05L618.09 174.05L618.09 147.21Q618.09 142.99 617.05 139.93Q616.02 136.86 614.11 134.87L614.11 134.87Q612.19 132.88 609.48 131.94Q606.76 131 603.44 131L603.44 131Q600.98 131.04 598.77 131.72Q596.57 132.41 594.69 133.66L594.69 133.66Q593.44 134.48 592.33 135.59Q591.21 136.70 590.28 138.03L590.28 138.03L589.77 131.78L583.29 131.78Z"/>
  <rect x="312" y="206" width="192" height="96" rx="3" fill="hsl(40, 87%, 40%)"/>
  <path fill="white" d="M318.80 233.41L318.80 291.93L326.03 291.93L326.03 271.62Q326.81 272.48 327.71 273.20Q328.61 273.92 329.62 274.51L329.62 274.51Q331.30 275.45 333.39 275.95Q335.48 276.46 337.90 276.46L337.90 276.46Q341.89 276.46 344.99 274.82Q348.10 273.18 350.21 270.29L350.21 270.29Q352.32 267.40 353.41 263.47Q354.50 259.55 354.50 255.02L354.50 255.02L354.50 254.20Q354.50 249.47 353.41 245.50Q352.32 241.54 350.21 238.69L350.21 238.69Q348.10 235.84 344.97 234.23Q341.85 232.63 337.79 232.63L337.79 232.63Q335.48 232.63 333.47 233.12Q331.46 233.61 329.82 234.55L329.82 234.55Q328.64 235.17 327.63 236.05Q326.61 236.93 325.75 238.02L325.75 238.02L325.40 233.41L318.80 233.41ZM347.28 254.20L347.28 254.20L347.28 255.02Q347.28 258.10 346.59 260.91Q345.91 263.73 344.50 265.88L344.50 265.88Q343.10 268.02 340.91 269.29Q338.72 270.56 335.71 270.56L335.71 270.56Q333.84 270.56 332.30 270.09Q330.75 269.63 329.50 268.80L329.50 268.80Q328.41 268.10 327.55 267.09Q326.69 266.07 326.03 264.90L326.03 264.90L326.03 244.55Q326.77 243.22 327.75 242.13Q328.72 241.03 329.97 240.29L329.97 240.29Q331.11 239.55 332.53 239.16Q333.96 238.77 335.64 238.77L335.64 238.77Q338.68 238.77 340.87 240.02Q343.06 241.27 344.50 243.38L344.50 243.38Q345.91 245.52 346.59 248.32Q347.28 251.11 347.28 254.20ZM389.58 215.68L367.98 215.68L367.98 221.97L382.36 221.97L382.36 269.43L367.98 269.43L367.98 275.68L403.37 275.68L403.37 269.43L389.58 269.43L389.58 215.68ZM442.28 269.86L442.71 275.68L449.27 275.68L449.27 233.41L442.00 233.41L442.00 263.73Q441.42 265.09 440.54 266.25Q439.66 267.40 438.49 268.22L438.49 268.22Q437.08 269.23 435.17 269.80Q433.25 270.37 430.83 270.37L430.83 270.37Q428.76 270.37 427.18 269.82Q425.60 269.27 424.50 267.91L424.50 267.91Q423.41 266.58 422.86 264.31Q422.32 262.05 422.32 258.61L422.32 258.61L422.32 233.41L415.09 233.41L415.09 258.53Q415.09 263.26 416.13 266.64Q417.16 270.02 419.07 272.20L419.07 272.20Q420.99 274.39 423.68 275.43Q426.38 276.46 429.70 276.46L429.70 276.46Q433.84 276.46 437.00 274.72Q440.17 272.98 442.28 269.86L442.28 269.86ZM461.54 254.20L461.54 254.20L461.54 255.02Q461.54 259.55 462.71 263.47Q463.88 267.40 466.07 270.29L466.07 270.29Q468.21 273.18 471.34 274.82Q474.46 276.46 478.33 276.46L478.33 276.46Q480.64 276.46 482.63 275.97Q484.62 275.48 486.26 274.59L486.26 274.59Q487.32 274 488.23 273.22Q489.15 272.44 489.97 271.50L489.97 271.50L489.97 275.13Q489.97 277.87 489.19 279.98Q488.41 282.09 486.96 283.49L486.96 283.49Q485.48 284.94 483.41 285.68Q481.34 286.42 478.76 286.42L478.76 286.42Q477.32 286.42 475.87 286.13Q474.43 285.84 472.98 285.17L472.98 285.17Q471.54 284.51 470.13 283.39Q468.72 282.28 467.39 280.68L467.39 280.68L463.64 285.02Q465.09 287.09 467.10 288.49Q469.11 289.90 471.30 290.72L471.30 290.72Q473.45 291.58 475.56 291.95Q477.67 292.32 479.31 292.32L479.31 292.32Q483.29 292.32 486.57 291.15Q489.86 289.98 492.24 287.71L492.24 287.71Q494.58 285.45 495.89 282.20Q497.20 278.96 497.20 274.78L497.20 274.78L497.20 233.41L490.64 233.41L490.29 238.02Q489.54 237.09 488.70 236.30Q487.86 235.52 486.93 234.94L486.93 234.94Q485.21 233.80 483.08 233.22Q480.95 232.63 478.41 232.63L478.41 232.63Q474.46 232.63 471.34 234.23Q468.21 235.84 466.03 238.69L466.03 238.69Q463.84 241.54 462.69 245.50Q461.54 249.47 461.54 254.20ZM468.76 255.02L468.76 255.02L468.76 254.20Q468.76 251.11 469.41 248.32Q470.05 245.52 471.46 243.38L471.46 243.38Q472.82 241.27 474.99 240.02Q477.16 238.77 480.21 238.77L480.21 238.77Q482.00 238.77 483.49 239.21Q484.97 239.66 486.18 240.45L486.18 240.45Q487.39 241.27 488.33 242.36Q489.27 243.45 489.97 244.78L489.97 244.78L489.97 264.16Q489.27 265.52 488.33 266.66Q487.39 267.79 486.22 268.61L486.22 268.61Q485.01 269.43 483.51 269.88Q482.00 270.33 480.13 270.33L480.13 270.33Q477.12 270.33 474.97 269.10Q472.82 267.87 471.46 265.76L471.46 265.76Q470.05 263.65 469.41 260.88Q468.76 258.10 468.76 255.02Z"/>
  <rect x="504" y="206" width="144" height="96" rx="3" fill="hsl(44, 80%, 44%)"/>
  <path fill="white" d="M510.18 254.20L510.18 254.20L510.18 255.02Q510.18 259.55 511.35 263.47Q512.52 267.40 514.71 270.29L514.71 270.29Q516.86 273.18 519.98 274.82Q523.11 276.46 526.98 276.46L526.98 276.46Q529.28 276.46 531.27 275.97Q533.27 275.48 534.91 274.59L534.91 274.59Q535.96 274 536.88 273.22Q537.80 272.44 538.62 271.50L538.62 271.50L538.62 275.13Q538.62 277.87 537.84 279.98Q537.05 282.09 535.61 283.49L535.61 283.49Q534.13 284.94 532.05 285.68Q529.98 286.42 527.41 286.42L527.41 286.42Q525.96 286.42 524.52 286.13Q523.07 285.84 521.63 285.17L521.63 285.17Q520.18 284.51 518.77 283.39Q517.37 282.28 516.04 280.68L516.04 280.68L512.29 285.02Q513.73 287.09 515.75 288.49Q517.76 289.90 519.95 290.72L519.95 290.72Q522.09 291.58 524.20 291.95Q526.31 292.32 527.95 292.32L527.95 292.32Q531.94 292.32 535.22 291.15Q538.50 289.98 540.88 287.71L540.88 287.71Q543.23 285.45 544.54 282.20Q545.84 278.96 545.84 274.78L545.84 274.78L545.84 233.41L539.28 233.41L538.93 238.02Q538.19 237.09 537.35 236.30Q536.51 235.52 535.57 234.94L535.57 234.94Q533.85 233.80 531.72 233.22Q529.59 232.63 527.05 232.63L527.05 232.63Q523.11 232.63 519.98 234.23Q516.86 235.84 514.67 238.69L514.67 238.69Q512.48 241.54 511.33 245.50Q510.18 249.47 510.18 254.20ZM517.41 255.02L517.41 255.02L517.41 254.20Q517.41 251.11 518.05 248.32Q518.70 245.52 520.10 243.38L520.10 243.38Q521.47 241.27 523.64 240.02Q525.80 238.77 528.85 238.77L528.85 238.77Q530.65 238.77 532.13 239.21Q533.62 239.66 534.83 240.45L534.83 240.45Q536.04 241.27 536.98 242.36Q537.91 243.45 538.62 244.78L538.62 244.78L538.62 264.16Q537.91 265.52 536.98 266.66Q536.04 267.79 534.87 268.61L534.87 268.61Q533.66 269.43 532.15 269.88Q530.65 270.33 528.77 270.33L528.77 270.33Q525.77 270.33 523.62 269.10Q521.47 267.87 520.10 265.76L520.10 265.76Q518.70 263.65 518.05 260.88Q517.41 258.10 517.41 255.02ZM578.19 276.46L578.19 276.46Q584.36 276.46 588.56 273.98Q592.76 271.50 594.87 268.30L594.87 268.30L590.45 264.86Q588.46 267.44 585.45 269Q582.45 270.56 578.58 270.56L578.58 270.56Q575.65 270.56 573.23 269.47Q570.80 268.38 569.09 266.46L569.09 266.46Q567.41 264.66 566.45 262.32Q565.49 259.98 565.22 256.89L565.22 256.89L565.22 256.62L595.41 256.62L595.41 253.38Q595.41 248.96 594.30 245.17Q593.19 241.38 590.92 238.57L590.92 238.57Q588.66 235.80 585.24 234.21Q581.82 232.63 577.25 232.63L577.25 232.63Q573.62 232.63 570.16 234.12Q566.70 235.60 564.01 238.38L564.01 238.38Q561.27 241.19 559.63 245.23Q557.99 249.27 557.99 254.39L557.99 254.39L557.99 256.03Q557.99 260.45 559.48 264.20Q560.96 267.95 563.62 270.68L563.62 270.68Q566.27 273.41 570.00 274.94Q573.73 276.46 578.19 276.46ZM577.25 238.57L577.25 238.57Q580.02 238.57 582.04 239.59Q584.05 240.60 585.38 242.24L585.38 242.24Q586.70 243.88 587.45 246.13Q588.19 248.38 588.19 250.33L588.19 250.33L588.19 250.68L565.45 250.68Q565.88 247.75 566.96 245.50Q568.03 243.26 569.59 241.70L569.59 241.70Q571.16 240.17 573.11 239.37Q575.06 238.57 577.25 238.57ZM606.16 254.20L606.16 254.20L606.16 255.02Q606.16 259.55 607.37 263.47Q608.58 267.40 610.77 270.29L610.77 270.29Q612.95 273.18 616.06 274.82Q619.16 276.46 622.99 276.46L622.99 276.46Q626.90 276.46 629.83 275.13Q632.76 273.80 634.87 271.23L634.87 271.23L635.18 275.68L641.82 275.68L641.82 215.68L634.59 215.68L634.59 237.59Q632.52 235.17 629.69 233.90Q626.86 232.63 623.07 232.63L623.07 232.63Q619.20 232.63 616.08 234.23Q612.95 235.84 610.77 238.69L610.77 238.69Q608.54 241.54 607.35 245.50Q606.16 249.47 606.16 254.20ZM613.38 255.02L613.38 255.02L613.38 254.20Q613.38 251.11 614.05 248.32Q614.71 245.52 616.12 243.38L616.12 243.38Q617.48 241.27 619.65 240.02Q621.82 238.77 624.87 238.77L624.87 238.77Q628.42 238.77 630.80 240.43Q633.19 242.09 634.59 244.66L634.59 244.66L634.59 264.27Q633.19 267.05 630.80 268.69Q628.42 270.33 624.79 270.33L624.79 270.33Q621.78 270.33 619.63 269.10Q617.48 267.87 616.12 265.76L616.12 265.76Q614.71 263.65 614.05 260.88Q613.38 258.10 613.38 255.02Z"/>
</svg>
